<svg xmlns="http://www.w3.org/2000/svg" width="276" height="126" class="nhsuk-logo"><path class="nhsuk-logo__text-supply" d="M6.69 92.92c0-3.437 2.823-4.42 5.032-4.42a16.67 16.67 0 016.445 1.35l.613-5.216a23.565 23.565 0 00-7.61-1.166c-5.646 0-11.109 2.64-11.109 9.758 0 10.495 13.932 7.979 13.932 14.055 0 2.885-3.253 4.112-5.646 4.112a15.763 15.763 0 01-7.242-1.964l-.553 5.769c3.13.737 4.665 1.228 8.163 1.228 6.383 0 11.907-2.639 11.907-9.636 0-10.679-13.932-8.347-13.932-13.87m34.614 10.924c0 3.007-.92 7.795-5.34 7.795-4.418 0-3.988-3.867-3.988-6.752v-12.52H25.9v14.853c0 5.278 2.393 9.206 7.978 9.206a9.705 9.705 0 007.672-3.744h.123v3.191h5.769V92.367h-6.138v11.477zm25.655-12.029c-3.621 0-5.954 1.596-7.304 3.866h-.123v-3.314h-5.83v33.081h6.137v-12.275h.062c2.148 2.578 4.296 3.253 6.873 3.253 7.365 0 10.004-5.954 10.004-12.398s-2.639-12.213-9.82-12.213zm-1.719 19.823c-4.05 0-5.34-4.234-5.34-7.61 0-3.375 1.535-7.426 5.463-7.426s5.032 4.296 5.032 7.426-1.104 7.61-5.155 7.61zm29.52-19.823c-3.559 0-5.891 1.596-7.241 3.866h-.123v-3.314h-5.83v33.081h6.137v-12.275h.061c2.148 2.578 4.296 3.253 6.874 3.253 7.365 0 10.004-5.954 10.004-12.398s-2.639-12.213-9.881-12.213zm-1.656 19.823c-4.05 0-5.401-4.234-5.401-7.61 0-3.375 1.596-7.426 5.462-7.426 3.867 0 5.094 4.296 5.094 7.426s-1.166 7.61-5.155 7.61zm22.585-29.95h-6.137v34.179h6.137V81.688zm16.264 27.802h-.122l-5.647-17.123h-6.751l8.961 24.672c0 2.517-1.473 4.174-3.928 4.174a9.591 9.591 0 01-3.13-.368l-.43 4.48c1.391.434 2.839.661 4.296.675 6.383 0 7.795-5.155 9.759-10.311l8.837-23.322H137.6l-5.647 17.123zm44.619 1.903c-6.813 0-10.802-4.91-10.802-11.354 0-6.444 4.051-11.538 10.618-11.538a12.89 12.89 0 016.935 1.718l.43-5.4a20.814 20.814 0 00-7.181-1.351c-10.802 0-17.492 6.137-17.492 17.001 0 10.863 7.181 15.957 17.492 15.957a32.22 32.22 0 007.242-1.044l-.307-5.339c-1.473.798-4.48 1.35-6.935 1.35zm24.979-19.578a8.897 8.897 0 00-7.426 3.744h-.062v-13.87h-6.137v34.184h6.137v-11.476c0-3.008.921-7.795 5.34-7.795s3.989 3.867 3.989 6.69v12.581h6.137v-14.852c0-5.278-2.454-9.206-7.978-9.206zm33.571 12.888v-3.007c0-6.874-2.946-9.881-10.126-9.881a20.97 20.97 0 00-8.163 1.78l.184 5.278a11.968 11.968 0 017.242-2.578c3.621 0 5.278 1.289 5.278 5.094h-3.375c-2.517 0-5.524.184-7.856 1.35-2.332 1.166-3.989 3.192-3.989 6.69 0 4.48 4.05 6.997 8.162 6.997 2.762 0 5.831-1.473 7.242-4.051h.123a19.6 19.6 0 00.246 3.498h5.4c-.122-1.841-.245-3.498-.306-5.278-.062-1.78-.062-3.498-.062-5.892zm-6.874 5.156a5.215 5.215 0 01-4.234 2.086c-2.21 0-3.867-.859-3.867-2.884 0-3.621 4.051-4.051 6.751-4.051h2.639c0 1.841-.245 3.498-1.289 4.849m19.149-27.619h-6.137v5.831h6.137v-5.83zm0 10.127h-6.137v23.47h6.137v-23.47zm20.008-.552c-3.192 0-5.831 1.043-7.733 3.744h-.062v-3.192h-5.83v23.506h6.137v-11.477c0-3.007.921-7.794 5.34-7.794s3.989 3.866 3.989 6.69v12.581h6.137v-14.852c0-5.278-2.455-9.206-7.978-9.206z"/><path class="nhsuk-logo__background" fill="#005EB8" d="M0 0h160v64H0V0z"/><path class="nhsuk-logo__text" fill="#fff" d="M15.6 6h17.6l10.4 36h.4l7.2-36h13.2L53.2 58H36L25.2 22h-.4l-7.2 36H4.4L15.6 6zm53.6 0h14.4l-4 19.6h16L100 6h14l-10.8 52h-14l4.4-22.4H77.2L72.4 58H58.8L69.2 6zm81.6 11.6c-2.8-1.2-6.4-2.4-11.6-2.4-5.6 0-10 .8-10 5.2 0 7.2 20.4 4.8 20.4 20.4 0 14.4-13.2 18-25.6 18-5.2 0-11.6-1.2-16-2.8l3.2-10.8c2.8 1.6 8.4 2.8 12.8 2.8s11.2-.8 11.2-6c0-8.4-20.4-5.2-20.4-20 0-13.6 11.6-17.6 23.2-17.6 6.4 0 12.4.8 16 2.4"/></svg>