<?xml version="1.0" encoding="utf-8"?>
<!-- Generator: Adobe Illustrator 22.0.1, SVG Export Plug-In . SVG Version: 6.00 Build 0)  -->
<svg version="1.1" id="Layer_1" xmlns="http://www.w3.org/2000/svg" xmlns:xlink="http://www.w3.org/1999/xlink" x="0px" y="0px"
	 viewBox="0 0 200 200" style="enable-background:new 0 0 200 200;" xml:space="preserve">
<path d="M163.8,121.2c11.7,0,21.2-9.5,21.2-21.2s-9.5-21.2-21.2-21.2h-3.6c-0.8-2.1-1.6-4.2-2.6-6.2l2.6-2.6
	c8.3-8.3,8.3-21.8,0-30.1c-8.3-8.3-21.8-8.3-30.1,0l-2.6,2.6c-2-1-4.1-1.8-6.2-2.6v-3.6c0-11.7-9.5-21.2-21.2-21.2
	s-21.2,9.5-21.2,21.2v3.6c-2.1,0.8-4.2,1.6-6.2,2.6l-2.6-2.6c-8.3-8.3-21.8-8.3-30.1,0c-8.3,8.3-8.3,21.8,0,30.1l2.6,2.6
	c-1,2-1.8,4.1-2.6,6.2h-3.6C24.5,78.8,15,88.3,15,100s9.5,21.2,21.2,21.2h3.6c0.8,2.1,1.6,4.2,2.6,6.2l-2.6,2.6
	c-8.3,8.3-8.3,21.8,0,30.1c8.3,8.3,21.8,8.3,30.1,0l2.6-2.6c2,1,4.1,1.8,6.2,2.6v3.6c0,11.7,9.5,21.2,21.2,21.2s21.2-9.5,21.2-21.2
	v-3.6c2.1-0.8,4.2-1.6,6.2-2.6l2.6,2.6c8.3,8.3,21.8,8.3,30.1,0c8.3-8.3,8.3-21.8,0-30.1l-2.6-2.6c1-2,1.8-4.1,2.6-6.2H163.8z
	 M149.1,107.1c-1.2,8.4-4.5,16.1-9.4,22.6l10.1,10.1l0.3,0.3c2.8,2.8,2.8,7.3,0,10c-2.8,2.8-7.3,2.8-10,0l-0.3-0.3l-10.1-10.1
	c-6.5,4.9-14.2,8.2-22.6,9.4v14.7c0,3.9-3.2,7.1-7.1,7.1s-7.1-3.2-7.1-7.1v-14.7c-8.4-1.2-16.1-4.5-22.6-9.4l-10.1,10.1l-0.3,0.3
	c-2.8,2.8-7.3,2.8-10,0c-2.8-2.8-2.8-7.3,0-10l0.3-0.3l10.1-10.1c-4.9-6.5-8.2-14.2-9.4-22.6H36.2c-3.9,0-7.1-3.2-7.1-7.1
	s3.2-7.1,7.1-7.1h14.7c1.2-8.4,4.5-16.1,9.4-22.6L50.2,60.2l-0.3-0.3c-2.8-2.8-2.8-7.3,0-10s7.3-2.8,10,0l0.3,0.3l10.1,10.1
	c6.5-4.9,14.2-8.2,22.6-9.4V36.2c0-3.9,3.2-7.1,7.1-7.1s7.1,3.2,7.1,7.1v14.7c8.4,1.2,16.1,4.5,22.6,9.4l10.1-10.1l0.3-0.3
	c2.8-2.8,7.3-2.8,10,0c2.8,2.8,2.8,7.3,0,10l-0.3,0.3l-10.1,10.1c4.9,6.5,8.2,14.2,9.4,22.6h14.7c3.9,0,7.1,3.2,7.1,7.1
	s-3.2,7.1-7.1,7.1H149.1z M100,71.7c-15.6,0-28.3,12.7-28.3,28.3s12.7,28.3,28.3,28.3s28.3-12.7,28.3-28.3S115.6,71.7,100,71.7z
	 M100,114.2c-7.8,0-14.2-6.3-14.2-14.2s6.3-14.2,14.2-14.2s14.2,6.3,14.2,14.2S107.8,114.2,100,114.2z"/>
</svg>
