<svg enable-background="new 0 0 24 24" viewBox="0 0 24 24" xmlns="http://www.w3.org/2000/svg"><path d="m12 22.2c-.3 0-.5-.1-.7-.3l-8.8-8.8c-1.2-1.2-1.9-2.9-1.9-4.6s.7-3.4 1.9-4.6 2.8-1.9 4.5-1.9 3.4.7 4.6 1.9l.4.4.4-.4c1.2-1.2 2.8-1.9 4.6-1.9 1.7 0 3.4.7 4.6 1.9 2.5 2.5 2.5 6.7 0 9.2l-8.8 8.8c-.3.2-.5.3-.8.3zm-5-18.2c-1.1 0-2.3.4-3.1 1.3-1.8 1.8-1.8 4.6 0 6.4l8.1 8.1 8.1-8.1c.9-.9 1.3-2 1.3-3.2s-.5-2.3-1.3-3.2c-.8-.8-1.9-1.3-3.1-1.3-1.2 0-2.3.5-3.2 1.3l-1 1.1c-.4.4-1 .4-1.4 0l-1.1-1.1c-.9-.9-2.1-1.3-3.3-1.3z"/></svg>