<?xml version="1.0" encoding="utf-8"?>
<!-- Generator: Adobe Illustrator 25.4.1, SVG Export Plug-In . SVG Version: 6.00 Build 0)  -->
<svg version="1.1" id="Layer_1" xmlns="http://www.w3.org/2000/svg" xmlns:xlink="http://www.w3.org/1999/xlink" x="0px" y="0px"
	 viewBox="0 0 34 34" xml:space="preserve">
<path d="M17,2.8C9.2,2.8,2.8,9.2,2.8,17S9.2,31.2,17,31.2S31.2,24.8,31.2,17S24.8,2.8,17,2.8z M22.7,18.4h-4.2v4.2
	c0,0.8-0.6,1.4-1.4,1.4s-1.4-0.6-1.4-1.4v-4.2h-4.2c-0.8,0-1.4-0.6-1.4-1.4s0.6-1.4,1.4-1.4h4.2v-4.2c0-0.8,0.6-1.4,1.4-1.4
	s1.4,0.6,1.4,1.4v4.2h4.2c0.8,0,1.4,0.6,1.4,1.4S23.4,18.4,22.7,18.4z"/>
</svg>
