<svg enable-background="new 0 0 24 24" viewBox="0 0 24 24" xmlns="http://www.w3.org/2000/svg"><path d="m12.1 24c-1.7 0-3-1.3-3-3 0-.3-.2-.6-.4-.7-.3-.1-.6-.1-.8.1-1.2 1.2-3.1 1.2-4.3.1-.6-.6-.9-1.3-.9-2.1s.3-1.6.9-2.1c.2-.2.3-.5.2-.8-.1-.2-.3-.4-.6-.4h-.2c-1.7 0-3-1.3-3-3s1.3-3 3-3c.3 0 .6-.2.7-.4.1-.3.1-.6-.1-.8-1.3-1.2-1.3-3.1-.1-4.3s3.1-1.2 4.2 0c.3.2.6.3.8.2.1 0 .1 0 .2-.1.2-.1.3-.3.3-.5v-.2c0-1.7 1.3-3 3-3s3 1.3 3 3c0 .3.2.6.4.7.3.1.5.1.7-.1.6-.6 1.4-.9 2.2-.9.8 0 1.5.3 2.1.9 1.2 1.2 1.2 3.1 0 4.2-.2.2-.3.5-.2.8 0 .1 0 .1.1.2s.3.2.5.2h.2c1.7 0 3 1.3 3 3s-1.3 3-3 3c-.3 0-.6.2-.7.4-.1.2-.1.5.1.7 1.2 1.2 1.2 3.1.1 4.3-1.2 1.2-3.1 1.2-4.2 0-.2-.2-.5-.3-.8-.2-.2.1-.4.3-.4.6v.2c0 1.7-1.4 3-3 3zm-3.8-5.7c.4 0 .7.1 1.1.2 1 .4 1.6 1.3 1.7 2.4v.1c0 .6.4 1 1 1s1-.4 1-1v-.2c0-1.1.6-2 1.6-2.4s2.1-.2 2.9.5c.3.3.5.4.8.4.3 0 .5-.1.7-.3s.3-.4.3-.7-.1-.5-.3-.7c-.8-.8-1-2-.6-3s1.4-1.6 2.4-1.6c.6 0 1.1-.4 1.1-1s-.4-1-1-1h-.2c-1.1 0-2-.6-2.4-1.6 0-.1-.1-.2-.1-.3-.3-.9-.1-2 .6-2.7.5-.5.5-1.1.1-1.5-.2-.2-.4-.3-.7-.3-.3 0-.5.1-.7.3-.8.8-2 1-3 .6s-1.6-1.4-1.6-2.4c0-.7-.4-1.1-1-1.1s-1 .4-1 1v.2c0 1.1-.6 2-1.6 2.4-.1 0-.2.1-.3.1-.9.3-2 .1-2.7-.6-.5-.5-1.1-.5-1.5-.1s-.4 1 0 1.4c.8.8 1 2 .6 3s-1.3 1.6-2.4 1.7h-.1c-.6 0-1 .4-1 1s.4 1 1 1h.2c1.1 0 2 .6 2.4 1.6s.2 2.1-.5 2.9c-.3.3-.4.5-.4.8s.1.5.3.7c.4.4 1 .4 1.4 0 .6-.6 1.3-.8 1.9-.8zm3.7-2.3c-2.2 0-4-1.8-4-4s1.8-4 4-4 4 1.8 4 4-1.8 4-4 4zm0-6c-1.1 0-2 .9-2 2s.9 2 2 2 2-.9 2-2-.9-2-2-2z"/></svg>